# xmcd CD database file
#
# Track frame offsets:
#	150
#	14180
#	26775
#	43233
#	55182
#	66959
#	82842
#	93846
#	109161
#	125626
#	136732
#	150926
#
# Disc length: 2193 seconds
#
# Revision: 2
# Processed by: cddbd v1.5.2PL0 Copyright (c) Steve Scherf et al.
# Submitted via: CDex 1.70beta2
#
DISCID=9b088f0c
DTITLE=Lillian and Big Hand - Rett fra hjertet
DYEAR=2000
DGENRE=Country
TTITLE0=Lillian Askeland - Heartbreak express
TTITLE1=Lillian Askeland and Ottar Big Hand Johansen - Moderne askepott
TTITLE2=Lillian Askeland - Jeg har aldri vært hos meg
TTITLE3=Lillian Askeland and Ottar Big Hand Johansen - Alt kan bli som før
TTITLE4=Ottar Big Hand Johansen - Lettere enn alt jeg kunne si
TTITLE5=Lillian Askeland and Ottar Big Hand Johansen - Hvis jeg savner deg
TTITLE6=Lillian Askeland and Ottar Big Hand Johansen - På kjør' i går
TTITLE7=Ottar Big Hand Johansen - Ta deg tid med jenter
TTITLE8=Lillian Askeland and Ottar Big Hand Johansen - Myke verdier
TTITLE9=Lillian Askeland - La oss male en jord
TTITLE10=Lillian Askeland and Ottar Big Hand Johansen - Våre ord på radio
TTITLE11=Lillian Askeland - Arven
EXTD=YEAR: 2000
EXTT0=
EXTT1=
EXTT2=
EXTT3=
EXTT4=
EXTT5=
EXTT6=
EXTT7=
EXTT8=
EXTT9=
EXTT10=
EXTT11=
PLAYORDER=
